<?xml version="1.0" encoding="utf-8"?>
<svg version="1.1" id="Layer_1" xmlns="http://www.w3.org/2000/svg" xmlns:xlink="http://www.w3.org/1999/xlink" x="0px" y="0px"
	 viewBox="0 0 128 128" style="enable-background:new 0 0 128 128;" xml:space="preserve">
<path d="M75,111.5c-0.8-0.2-1.7-0.4-2.5-0.7c-2.7-0.8-4.8-3.5-4.5-6.5c0.2-2.1,1.2-3.8,2.4-5.4c1.4-2,3.4-3.3,5.5-4.5
	c3.4-1.9,7.1-2.4,10.9-1.4c0.6,0.1,1.1,0.5,1.6,0.8c0.2,0.1,0.3,0.1,0.6,0.3c0-0.5,0-0.8,0-1.2c0-9.7,0-19.3,0-29
	c0-0.7-0.2-1.1-0.9-1.5c-2.9-1.7-5.7-3.5-8.6-5.2c-3.8-2.3-7.7-4.7-11.6-7c-2-1.2-4.1-2.5-6.3-3.8c0,0.5,0.1,0.9,0.1,1.3
	c0,4.7,0,9.5,0,14.2c0,6-0.1,12-0.1,18.1c0,3.4-1.5,5.9-3.9,8.2c-2,1.9-4.3,3.2-7,3.9c-2.5,0.7-5,1.1-7.6,0
	c-3.7-1.5-5.2-5.1-3.6-8.9c1.4-3.3,4-5.6,7.1-7.3c1.6-0.9,3.2-1.6,5-1.9c2.9-0.4,5.6-0.3,8.3,1.4c0-19.7,0-39.2,0-58.8
	c2.4-0.5,3.7,1.3,5.4,2.3c6.6,4.1,13.1,8.3,19.6,12.5c1.8,1.1,3.5,2.2,5.2,3.4c0.3,0.2,0.6,0.9,0.6,1.3c0,7.9,0,15.8,0,23.7
	c0,12.7,0,25.5,0,38.2c0,4.2-1.8,7.3-5.1,9.8c-2.4,1.8-5,3-7.9,3.5c-0.4,0.1-0.9,0.2-1.3,0.2C75.9,111.5,75.4,111.5,75,111.5z
	 M88.9,60c0-3.1,0-5.9,0-8.8c0-0.2-0.2-0.5-0.5-0.7c-0.9-0.6-1.8-1.1-2.7-1.6c-3.5-2.1-7-4.2-10.5-6.3c-4.2-2.5-8.4-5.1-12.6-7.7
	c-0.3-0.2-0.7-0.4-1.2-0.7c0,0.6,0,0.9,0,1.3c0.1,2.2,0.2,4.3,0.1,6.5c-0.1,1.1,0.3,1.6,1.2,2c0.7,0.3,1.3,0.8,1.9,1.2
	c3.2,1.9,6.4,3.9,9.5,5.8C79.1,53.9,83.9,56.9,88.9,60z"/>
</svg>
